<mxfile host="65bd71144e">
    <diagram id="wVG_zeSb_K0RIXpEG8TA" name="第 1 页">
        <mxGraphModel dx="1442" dy="679" grid="1" gridSize="10" guides="1" tooltips="1" connect="1" arrows="1" fold="1" page="1" pageScale="1" pageWidth="2339" pageHeight="3300" math="0" shadow="0">
            <root>
                <mxCell id="0"/>
                <mxCell id="1" parent="0"/>
                <mxCell id="53" value="anime" style="rounded=0;whiteSpace=wrap;html=1;fillColor=#60a917;fontColor=#ffffff;strokeColor=#2D7600;" parent="1" vertex="1">
                    <mxGeometry x="690" y="520" width="120" height="60" as="geometry"/>
                </mxCell>
                <mxCell id="54" value="manga" style="rounded=0;whiteSpace=wrap;html=1;fillColor=#60a917;fontColor=#ffffff;strokeColor=#2D7600;" parent="1" vertex="1">
                    <mxGeometry x="690" y="640" width="120" height="60" as="geometry"/>
                </mxCell>
                <mxCell id="63" value="" style="edgeStyle=none;html=1;" parent="1" source="55" target="62" edge="1">
                    <mxGeometry relative="1" as="geometry"/>
                </mxCell>
                <mxCell id="55" value="user" style="rounded=0;whiteSpace=wrap;html=1;fillColor=#60a917;fontColor=#ffffff;strokeColor=#2D7600;" parent="1" vertex="1">
                    <mxGeometry x="690" y="750" width="120" height="60" as="geometry"/>
                </mxCell>
                <mxCell id="56" value="favorite" style="rounded=0;whiteSpace=wrap;html=1;fillColor=#1ba1e2;strokeColor=#006EAF;fontColor=#ffffff;" parent="1" vertex="1">
                    <mxGeometry x="690" y="860" width="120" height="60" as="geometry"/>
                </mxCell>
                <mxCell id="57" value="未建表" style="rounded=0;whiteSpace=wrap;html=1;fillColor=#1ba1e2;strokeColor=#006EAF;fontColor=#ffffff;" parent="1" vertex="1">
                    <mxGeometry x="330" y="750" width="120" height="60" as="geometry"/>
                </mxCell>
                <mxCell id="58" value="已建表" style="rounded=0;whiteSpace=wrap;html=1;fillColor=#60a917;fontColor=#ffffff;strokeColor=#2D7600;" parent="1" vertex="1">
                    <mxGeometry x="330" y="600" width="120" height="60" as="geometry"/>
                </mxCell>
                <mxCell id="59" value="开放式api和自己的数据库结合&lt;br&gt;只有详情时查询自身数据库" style="ellipse;whiteSpace=wrap;html=1;aspect=fixed;fillColor=#f8cecc;strokeColor=#b85450;" parent="1" vertex="1">
                    <mxGeometry x="870" y="520" width="180" height="180" as="geometry"/>
                </mxCell>
                <mxCell id="61" value="" style="shape=curlyBracket;whiteSpace=wrap;html=1;rounded=1;flipH=1;labelPosition=right;verticalLabelPosition=middle;align=left;verticalAlign=middle;" parent="1" vertex="1">
                    <mxGeometry x="810" y="550" width="20" height="120" as="geometry"/>
                </mxCell>
                <mxCell id="62" value="目前两个用户，不分权限" style="rounded=0;whiteSpace=wrap;html=1;fillColor=#f5f5f5;fontColor=#333333;strokeColor=#666666;" parent="1" vertex="1">
                    <mxGeometry x="890" y="750" width="220" height="60" as="geometry"/>
                </mxCell>
                <mxCell id="64" value="book" style="rounded=0;whiteSpace=wrap;html=1;fillColor=#60a917;fontColor=#ffffff;strokeColor=#2D7600;" parent="1" vertex="1">
                    <mxGeometry x="690" y="970" width="120" height="60" as="geometry"/>
                </mxCell>
                <mxCell id="65" value="game" style="rounded=0;whiteSpace=wrap;html=1;fillColor=#60a917;strokeColor=#2D7600;fontColor=#ffffff;" parent="1" vertex="1">
                    <mxGeometry x="690" y="1080" width="120" height="60" as="geometry"/>
                </mxCell>
                <mxCell id="66" value="menu" style="rounded=0;whiteSpace=wrap;html=1;fillColor=#60a917;strokeColor=#2D7600;fontColor=#ffffff;" vertex="1" parent="1">
                    <mxGeometry x="690" y="1190" width="120" height="60" as="geometry"/>
                </mxCell>
            </root>
        </mxGraphModel>
    </diagram>
</mxfile>
